<?xml version="1.0" standalone="no"?>
<!DOCTYPE svg PUBLIC "-//W3C//DTD SVG 20010904//EN"
 "http://www.w3.org/TR/2001/REC-SVG-20010904/DTD/svg10.dtd">
<svg version="1.0" xmlns="http://www.w3.org/2000/svg"
 width="300.000000pt" height="300.000000pt" viewBox="0 0 300.000000 300.000000"
 preserveAspectRatio="xMidYMid meet">
<metadata>
Created by potrace 1.11, written by Peter Selinger 2001-2013
</metadata>
<g transform="translate(0.000000,300.000000) scale(0.100000,-0.100000)"
fill="#000000" stroke="none">
<path d="M750 1495 l0 -1275 95 0 95 0 0 1275 0 1275 -95 0 -95 0 0 -1275z"/>
<path d="M1000 2100 c0 -324 1 -590 3 -590 4 0 95 37 487 194 146 59 274 111
285 116 11 5 56 23 100 41 44 17 94 37 110 44 17 7 109 44 205 83 96 39 198
80 225 92 l50 22 -75 29 c-41 16 -84 34 -95 39 -11 5 -42 18 -70 29 -27 10
-123 49 -213 85 -89 36 -165 66 -167 66 -3 0 -27 10 -53 21 -93 42 -110 49
-117 49 -3 0 -25 9 -49 19 -23 11 -60 26 -82 34 -21 8 -151 60 -288 116 -137
55 -250 101 -252 101 -2 0 -4 -265 -4 -590z"/>
</g>
</svg>
